<svg width="24" height="24" viewBox="0 0 24 24" fill="none" xmlns="http://www.w3.org/2000/svg">
<g clip-path="url(#clip0_141_5350)">
<path d="M18.4295 16.4759H10.6657C10.0984 16.4797 9.54508 16.2976 9.0887 15.9568C8.63232 15.6159 8.29742 15.1347 8.13417 14.5853L4.40978 2.38321C4.34711 2.17725 4.22052 1.99719 4.04874 1.86969C3.87697 1.74219 3.66915 1.67404 3.45608 1.67533H0.831214C0.722442 1.67552 0.614697 1.65405 0.514131 1.61213C0.413565 1.57022 0.322147 1.50868 0.245098 1.43103C0.0894898 1.27422 0.00185288 1.06131 0.00146613 0.839151C0.00107938 0.616991 0.0879745 0.403775 0.243036 0.246407C0.398097 0.0890397 0.608622 0.000411914 0.828298 2.07869e-05H3.45316C4.02098 -0.00448662 4.57494 0.177344 5.03191 0.51823C5.48888 0.859116 5.82422 1.34067 5.98761 1.89064L6.74882 4.38591H21.3314C21.7718 4.38642 22.2052 4.49776 22.5925 4.7099C22.9797 4.92204 23.3087 5.22832 23.5497 5.60111C23.7908 5.9739 23.9363 6.4015 23.9731 6.84535C24.01 7.28919 23.937 7.73534 23.7609 8.14356L20.8443 14.8714C20.6384 15.3464 20.3007 15.7508 19.872 16.0356C19.4434 16.3204 18.9423 16.4733 18.4295 16.4759ZM7.26505 6.06122L9.71492 14.0927C9.77692 14.2987 9.90286 14.4791 10.0741 14.6071C10.2453 14.7351 10.4528 14.804 10.6657 14.8035H18.4295C18.6216 14.8046 18.81 14.7495 18.972 14.6448C19.1339 14.5402 19.2625 14.3904 19.3423 14.2136L22.2588 7.48583C22.3253 7.33258 22.3529 7.16498 22.3392 6.99821C22.3255 6.83143 22.2708 6.67077 22.1801 6.53077C22.0895 6.39076 21.9657 6.27585 21.8201 6.19643C21.6744 6.11702 21.5115 6.07561 21.346 6.07597L7.26505 6.06122Z" fill="#1D1818"/>
<path d="M10.7267 24C10.1995 24 9.68412 23.8419 9.24575 23.5457C8.80738 23.2495 8.46571 22.8284 8.26395 22.3358C8.06219 21.8432 8.0094 21.3012 8.11226 20.7782C8.21511 20.2553 8.469 19.775 8.8418 19.3979C9.2146 19.0209 9.68959 18.7642 10.2067 18.6601C10.7238 18.5561 11.2598 18.6095 11.7468 18.8135C12.2339 19.0176 12.6503 19.3631 12.9432 19.8064C13.2361 20.2498 13.3924 20.771 13.3924 21.3042C13.3917 22.0189 13.1106 22.7042 12.6108 23.2096C12.1111 23.715 11.4335 23.9992 10.7267 24ZM10.7267 20.2836C10.5271 20.2836 10.332 20.3435 10.1661 20.4556C10.0001 20.5678 9.87081 20.7272 9.79443 20.9136C9.71805 21.1001 9.69807 21.3053 9.73701 21.5033C9.77594 21.7012 9.87205 21.8831 10.0132 22.0258C10.1543 22.1685 10.3341 22.2657 10.5299 22.3051C10.7256 22.3445 10.9285 22.3243 11.1129 22.247C11.2973 22.1698 11.4549 22.039 11.5658 21.8711C11.6767 21.7033 11.7358 21.506 11.7358 21.3042C11.7351 21.0338 11.6285 20.7746 11.4394 20.5834C11.2504 20.3922 10.9941 20.2844 10.7267 20.2836Z" fill="#1D1818"/>
<path d="M18.2135 24C17.6863 24 17.1709 23.8419 16.7326 23.5457C16.2942 23.2495 15.9525 22.8284 15.7508 22.3358C15.549 21.8432 15.4962 21.3012 15.5991 20.7782C15.7019 20.2553 15.9558 19.775 16.3286 19.3979C16.7014 19.0209 17.1764 18.7642 17.6935 18.6601C18.2106 18.5561 18.7466 18.6095 19.2337 18.8135C19.7208 19.0176 20.1371 19.3631 20.43 19.8064C20.7229 20.2498 20.8792 20.771 20.8792 21.3042C20.8785 22.0189 20.5974 22.7042 20.0976 23.2096C19.5979 23.715 18.9203 23.9992 18.2135 24ZM18.2135 20.2836C18.014 20.2836 17.8189 20.3435 17.6529 20.4556C17.487 20.5678 17.3576 20.7272 17.2812 20.9136C17.2049 21.1001 17.1849 21.3053 17.2238 21.5033C17.2628 21.7012 17.3589 21.8831 17.5 22.0258C17.6411 22.1685 17.8209 22.2657 18.0167 22.3051C18.2124 22.3445 18.4153 22.3243 18.5997 22.247C18.7841 22.1698 18.9417 22.039 19.0526 21.8711C19.1635 21.7033 19.2227 21.506 19.2227 21.3042C19.2219 21.0338 19.1153 20.7746 18.9262 20.5834C18.7372 20.3922 18.4809 20.2844 18.2135 20.2836Z" fill="#1D1818"/>
</g>
<defs>
<clipPath id="clip0_141_5350">
<rect width="24" height="24" fill="white"/>
</clipPath>
</defs>
</svg>
