<svg width="20" height="20" viewBox="0 0 20 20" fill="none" xmlns="http://www.w3.org/2000/svg">
<path d="M0.544634 0.000579836C0.32522 0.0218136 0.138446 0.16927 0.066487 0.377672C-0.00566793 0.585877 0.0505614 0.817089 0.210011 0.969467L8.83277 9.59223L0.210011 18.215C0.0853609 18.3155 0.00927487 18.4641 0.000824245 18.6237C-0.0078267 18.7836 0.0519409 18.9395 0.16499 19.0527C0.278235 19.1658 0.434147 19.2255 0.593984 19.2169C0.75363 19.2084 0.902263 19.1323 1.00273 19.0077L9.62549 10.3849L18.2482 19.0077C18.3487 19.1324 18.4973 19.2084 18.657 19.2169C18.8168 19.2255 18.9727 19.1658 19.086 19.0527C19.199 18.9395 19.2588 18.7836 19.2502 18.6237C19.2417 18.4641 19.1656 18.3155 19.041 18.215L10.4182 9.59223L19.041 0.969467C19.2079 0.808055 19.2588 0.560918 19.1692 0.346618C19.0797 0.132513 18.868 -0.00491642 18.6357 0.00058982C18.4885 0.00629135 18.3495 0.0695991 18.2482 0.176749L9.62547 8.79951L1.00271 0.176749C0.897134 0.0652756 0.750862 0.00176757 0.597507 0.00058982C0.579813 -0.000196607 0.562315 -0.000196607 0.544619 0.00058982L0.544634 0.000579836Z" fill="black"/>
</svg>
