<svg width="22" height="19" viewBox="0 0 22 19" fill="none" xmlns="http://www.w3.org/2000/svg">
<g clip-path="url(#clip0_141_5356)">
<path d="M11.0002 19C10.7927 19.0044 10.5892 18.9191 10.4165 18.7554L1.70176 9.99543C-0.565951 7.71112 -0.565951 3.99652 1.70176 1.70392C2.91976 0.551949 4.35686 -0.0426701 5.81983 1.05619e-05C7.28373 -0.0389963 8.72091 0.559995 9.9379 1.71635L11.0002 2.78181L12.0626 1.71635C14.3332 -0.567958 18.0281 -0.567958 20.2987 1.71635C22.5694 4.00067 22.5694 7.71112 20.2987 10.0079L11.5869 18.7554C11.4132 18.9191 11.2087 19.0044 11.0002 19ZM5.81983 1.65831C4.77178 1.63537 3.74399 2.06945 2.87502 2.90204C1.24939 4.53547 1.24939 7.1929 2.87502 8.82633L11.0002 16.9976L19.1284 8.81803C20.7511 7.18461 20.7511 4.52718 19.1284 2.89375C17.5057 1.26032 14.8615 1.24374 13.2329 2.90204L11.5869 4.56034C11.4129 4.71975 11.2102 4.80453 11.0032 4.80453C10.7961 4.80453 10.5935 4.71975 10.4195 4.56034L8.75589 2.90204C7.8893 2.07213 6.86487 1.63818 5.81983 1.65831Z" fill="#1D1818"/>
</g>
<defs>
<clipPath id="clip0_141_5356">
<rect width="22" height="19" fill="white"/>
</clipPath>
</defs>
</svg>
