<svg width="45" height="45" viewBox="0 0 45 45" fill="none" xmlns="http://www.w3.org/2000/svg">
<path d="M3.20423 41.2469H5.06722C5.48118 43.3798 7.308 45 9.49537 45C11.6823 45 13.5092 43.3887 13.9235 41.2469H30.4917C30.9057 43.3798 32.7325 45 34.9199 45C37.1068 45 38.9337 43.3887 39.348 41.2469H40.0321C42.3271 41.2469 44.1992 39.3098 44.1992 36.9349V34.2992C44.1992 33.5633 44.0101 32.8559 43.6681 32.2226C43.641 32.1575 43.6052 32.1014 43.569 32.0456C43.5329 31.9805 43.4971 31.9151 43.4609 31.85L39.0689 25.2842C38.2858 24.12 37.0078 23.4215 35.64 23.4215H27.4501V17.7406C27.4501 15.9152 26.01 14.4251 24.2461 14.4251L3.19494 14.4255C1.43099 14.4165 0 15.8973 0 17.7226V37.9323C0 39.7573 1.44005 41.2474 3.204 41.2474L3.20423 41.2469ZM9.49498 43.1377C7.99206 43.1377 6.77688 41.8802 6.77688 40.325C6.77688 38.7699 7.99206 37.5124 9.49498 37.5124C10.9888 37.5124 12.204 38.7699 12.2131 40.3157V40.325C12.2131 41.8708 10.9889 43.1377 9.49498 43.1377V43.1377ZM34.9104 43.1377C33.4166 43.1377 32.1923 41.8802 32.1923 40.325C32.1923 38.7699 33.4075 37.5124 34.9104 37.5124C36.4043 37.5124 37.6195 38.7699 37.6285 40.3157V40.325V40.3344C37.6285 41.8708 36.4133 43.1376 34.9104 43.1376V43.1377ZM37.5833 26.3365L41.1112 31.6171H35.4144V25.2845H35.6393C36.4134 25.2841 37.1422 25.6754 37.5833 26.3365V26.3365ZM33.6143 25.2841V32.5483C33.6143 33.0604 34.0193 33.4794 34.5142 33.4794H42.2541C42.3441 33.7402 42.3979 34.0197 42.3979 34.2991V36.9347C42.3979 38.2853 41.3361 39.3841 40.0309 39.3841H39.3469C38.9239 37.2513 37.1061 35.6497 34.9187 35.6497C32.7318 35.6497 30.9136 37.2609 30.4906 39.3841H27.2776C27.3767 39.0953 27.4396 38.7881 27.4396 38.4623L27.4404 25.2841L33.6143 25.2841ZM1.79996 17.7221C1.79996 16.9211 2.43013 16.2788 3.19478 16.2788H24.2363C25.0103 16.2788 25.6401 16.9309 25.6401 17.7315V38.4621C25.6401 38.9743 25.2443 39.3839 24.7493 39.3839H13.9224C13.4994 37.2511 11.6816 35.6495 9.49428 35.6495C7.3073 35.6495 5.48915 37.2608 5.06613 39.3839H3.20353C2.42948 39.3839 1.79935 38.7318 1.79935 37.9309L1.79996 17.7221Z" fill="#384685"/>
<path d="M36.4409 0C31.7251 0 27.8818 3.96752 27.8818 8.85681C27.8818 13.7461 31.716 17.7136 36.4409 17.7136C41.1568 17.7136 45.0001 13.7461 45.0001 8.85681C44.9997 3.96712 41.1659 0 36.4409 0V0ZM36.4409 15.8413C32.7149 15.8413 29.6819 12.7029 29.6819 8.84723C29.6819 4.99157 32.7149 1.85314 36.4409 1.85314C40.167 1.85314 43.1999 5.00095 43.1999 8.85661C43.1999 12.7123 40.167 15.8413 36.4409 15.8413V15.8413Z" fill="#384685"/>
<path d="M38.9249 7.92483H37.35V5.31724C37.35 4.80508 36.9451 4.38608 36.4502 4.38608C35.9552 4.38608 35.5503 4.80508 35.5503 5.31724V8.85599C35.5503 9.36815 35.9552 9.78716 36.4502 9.78716H38.9253C39.4202 9.78716 39.8251 9.36815 39.8251 8.85599C39.8251 8.34383 39.4198 7.92483 38.9249 7.92483H38.9249Z" fill="#384685"/>
</svg>
